<svg xmlns="http://www.w3.org/2000/svg" viewBox="0 0 1000 1000"><defs><style>.back,.b{fill:none;stroke:#63b7d5;stroke-linejoin:round;stroke-width:32.27px;}.b{stroke-linecap:round;}</style></defs><title>tramtrain-icons</title><path class="back" d="M18.23,95V905H185.87c70.46,0,324.52-53.6,324.52-53.6a45.16,45.16,0,0,0,37.45-44.5V677.45a73.79,73.79,0,0,0-21.62-52.2h0A130.33,130.33,0,0,1,490,555.66l-113.78-406a74.79,74.79,0,0,0-72-54.61Z"/><path class="back" d="M129.49,295.27V671.35h158S297.13,295.27,129.49,295.27Z"/><path class="back" d="M547.84,724.75H482a42.59,42.59,0,0,1-41.6-33.46L304.66,236.34a70.16,70.16,0,0,0-67.23-50.1H18.23"/><line class="back" x1="513.6" y1="610.59" x2="416.29" y2="610.59"/><line class="back" x1="548.96" y1="805.98" x2="18.23" y2="805.98"/><line class="back" x1="299.2" y1="223.13" x2="396.82" y2="223.13"/><polyline class="b" points="630.18 724.75 981.77 724.75 981.77 905 630.7 905"/><line class="b" x1="779.27" y1="724.75" x2="777.53" y2="358.01"/><rect class="b" x="647.76" y="101.45" width="256.35" height="256.35"/><line class="b" x1="719.19" y1="181.79" x2="832.68" y2="181.79"/><line class="b" x1="777.05" y1="277.47" x2="777.05" y2="181.79"/></svg>