<svg xmlns="http://www.w3.org/2000/svg" viewBox="0 0 1000 1000"><defs><style>.a{fill:#4e989a;opacity:0.15;}.b,.c{fill:none;stroke:#4e989a;stroke-linejoin:round;stroke-width:20px;}.c{stroke-linecap:round;}</style></defs><title>tramtrain-icons</title><rect class="a" x="1" width="1000" height="1000"/><path class="b" d="M201.42,249V751h103.9c43.67,0,201.12-33.22,201.12-33.22a28,28,0,0,0,23.21-27.58V610a45.76,45.76,0,0,0-13.4-32.35h0a80.74,80.74,0,0,1-22.45-43.13L423.29,282.84A46.35,46.35,0,0,0,378.66,249Z"/><path class="b" d="M270.38,373.12V606.19h97.91S374.27,373.12,270.38,373.12Z"/><path class="b" d="M529.65,639.29H488.82A26.4,26.4,0,0,1,463,618.55L378.94,336.6a43.49,43.49,0,0,0-41.67-31.06H201.42"/><line class="b" x1="508.43" y1="568.54" x2="448.12" y2="568.54"/><line class="b" x1="530.34" y1="689.63" x2="201.42" y2="689.63"/><line class="b" x1="375.55" y1="328.41" x2="436.06" y2="328.41"/><polyline class="c" points="580.68 639.29 798.58 639.29 798.58 751 581 751"/><line class="c" x1="673.08" y1="639.29" x2="672" y2="412"/><rect class="c" x="591.57" y="253" width="158.87" height="158.87"/><line class="c" x1="635.84" y1="302.79" x2="706.18" y2="302.79"/><line class="c" x1="671.7" y1="362.09" x2="671.7" y2="302.79"/></svg>