<svg xmlns="http://www.w3.org/2000/svg" viewBox="0 0 1000 1000"><defs><style>.a{fill:#4e989a;opacity:0.15;}.b{fill:none;stroke:#63b7d5;stroke-linecap:round;stroke-miterlimit:10;stroke-width:20px;}</style></defs><title>tramtrain-icons</title><rect class="a" x="0.5" y="0.5" width="1000" height="1000"/><path class="b" d="M675.44,684.26l-81.9-.33a11.88,11.88,0,0,0-10.24,5.78l-12.45,20.73a9.66,9.66,0,0,0-.57,8.81l8.44,18.5"/><path class="b" d="M427.59,250.73c-51.32,0-154,30.8-154,45.17,0,9.18-24.63,416.72-24.63,435.19,0,14.08,3.58,79.45,5.28,109.74a16.41,16.41,0,0,0,16.39,15.48H729.33a16.41,16.41,0,0,0,16.39-15.48c1.7-30.29,5.28-95.66,5.28-109.74,0-18.47-24.63-426-24.63-435.19,0-14.37-102.64-45.17-154-45.17Z"/><path class="b" d="M324.56,684.26l81.9-.33a11.88,11.88,0,0,1,10.24,5.78l12.45,20.73a9.66,9.66,0,0,1,.57,8.81l-9.38,18.5"/><path class="b" d="M610.89,380.06c3.93,0,7.11-3.61,7.11-8.07V343c0-4.46-3.18-8.07-7.11-8.07H389.11c-3.93,0-7.11,3.61-7.11,8.07v29c0,4.46,3.18,8.07,7.11,8.07Z"/><path class="b" d="M391.07,430.3a8.91,8.91,0,0,0-8.91,9.06l2.91,186.35a8.05,8.05,0,0,0,8.05,7.93H606.88a8.05,8.05,0,0,0,8-7.93l2.91-186.35a8.91,8.91,0,0,0-8.91-9.06Z"/><path class="b" d="M271.47,335.9s18.59-1,35-1c18.47,0,17.68,296.72,18.34,382.26a20.75,20.75,0,0,0,20.75,20.59H654.43a20.75,20.75,0,0,0,20.75-20.59c.66-85.54-.13-382.26,18.34-382.26,16.42,0,35,1,35,1"/><line class="b" x1="251.45" y1="788.58" x2="748.55" y2="788.58"/><line class="b" x1="531.7" y1="250.39" x2="584.44" y2="143.69"/><path class="b" d="M352.7,167.09h0A23,23,0,0,1,375.56,144l248.88,0a23,23,0,0,1,22.86,23.14h0"/><line class="b" x1="468.3" y1="250.42" x2="415.56" y2="143.72"/></svg>